<svg xmlns="http://www.w3.org/2000/svg" width="35.48" height="32" viewBox="0 0 35.48 32">
  <path id="heart" d="M35.417,10.03c-1.094-7.931-7.254-10-10.473-10h-.012c-3.28-.279-5.72,1.722-7.194,3.163C16.274,1.766,13.872-.255,10.544.026h-.012C7.313.026,1.154,2.1.059,10.028c-.069.494-.556,4.9,2.933,10.335,3.591,5.6,11.619,10.318,13.981,11.314l.765.323.765-.323c2.363-1,10.391-5.717,13.98-11.312,3.489-5.438,3-9.84,2.933-10.335Zm-6.845,8.241c-2.487,3.873-8.2,7.632-10.887,8.992C15,25.9,9.286,22.145,6.8,18.269c-2.633-4.1-2.235-7.3-2.235-7.3a6.994,6.994,0,0,1,6.529-6.292,6.156,6.156,0,0,1,5.186,2.439l.569.744.882,1.185.816-1.137.6-.764A6.194,6.194,0,0,1,24.291,4.65a6.66,6.66,0,0,1,6.52,6.337c.013.128.4,3.183-2.238,7.284Z" transform="translate(0.002 0)" fill="#cc0c2f"/>
</svg>
